<svg width="77" height="88" viewBox="0 0 77 88" fill="none" xmlns="http://www.w3.org/2000/svg">
<g clip-path="url(#clip0_203_3595)">
<path d="M75.7 21.5301L38.5 0.130117C38.19 -0.0498828 37.81 -0.0498828 37.5 0.130117L0.5 21.5401C0.19 21.7201 0 22.0501 0 22.4101V65.2101C0 65.5701 0.19 65.9001 0.5 66.0801L37.5 87.4801C37.66 87.5701 37.83 87.6101 38 87.6101C38.17 87.6101 38.34 87.5701 38.5 87.4801L75.7 66.0801C76.01 65.9001 76.2 65.5701 76.2 65.2101V22.4001C76.2 22.0401 76.01 21.7101 75.7 21.5301ZM74.2 64.6201L38 85.4401L2 64.6201V22.9801L38 2.15012L74.2 22.9701V64.6101V64.6201Z" fill="white"/>
<path d="M41 29.8C41 30.2 41.2 30.6 41.6 30.8L49.6 35.4C49.8 35.6 50 35.6 50.2 35.6C50.4 35.6 50.6 35.6 50.8 35.4L58.8 30.8C59.4 30.4 59.6 29.8 59.2 29.2C59 29 59 28.8 58.8 28.8L50.8 24.2C50.4 24 50 24 49.6 24.2L41.6 28.8C41.2 29 41 29.4 41 29.8Z" fill="white"/>
<path d="M46.6 35.8L38.6 31.2C38.2 31 37.8 31 37.4 31.2L29.4 35.8C28.8 36.2 28.6 36.8 29 37.4C29.2 37.6 29.2 37.8 29.4 37.8L37.4 42.4C37.8 42.6 38.2 42.6 38.6 42.4L46.6 37.8C47.2 37.4 47.4 36.8 47 36.2C47 36 46.8 35.8 46.6 35.8Z" fill="white"/>
<path d="M50.2 49.6C50.4 49.6 50.6 49.6 50.8 49.4L58.8 44.8C59.4 44.4 59.6 43.8 59.2 43.2C59 43 59 42.8 58.8 42.8L50.8 38.2C50.4 38 50 38 49.6 38.2L41.6 42.8C41 43.2 40.8 43.8 41.2 44.4C41.4 44.6 41.4 44.8 41.6 44.8L49.6 49.4C49.8 49.6 50 49.6 50.2 49.6Z" fill="white"/>
<path d="M35.2 43.8C35.2 43.4 35 43 34.6 42.8L26.6 38.2C26.2 38 25.8 38 25.4 38.2L17.4 42.8C16.8 43.2 16.6 43.8 17 44.4C17.2 44.6 17.2 44.8 17.4 44.8L25.4 49.4C25.8 49.6 26.2 49.6 26.6 49.4L34.6 44.8C34.8 44.6 35.2 44.2 35.2 43.8Z" fill="white"/>
<path d="M29.6 51.8L37.6 56.4C38 56.6 38.4 56.6 38.8 56.4L46.8 51.8C47.4 51.4 47.6 50.8 47.2 50.2C47 50 47 49.8 46.8 49.8L38.8 45.2C38.4 45 38 45 37.6 45.2L29.6 49.8C29 50.2 28.8 50.8 29.2 51.4C29.2 51.6 29.4 51.8 29.6 51.8Z" fill="white"/>
<path d="M17.4 30.8L25.4 35.4C25.8 35.6 26.2 35.6 26.6 35.4L34.6 30.8C35.2 30.4 35.4 29.8 35 29.2C34.8 29 34.8 28.8 34.6 28.8L26.6 24.2C26.2 24 25.8 24 25.4 24.2L17.4 28.8C16.8 29.2 16.6 29.8 17 30.4C17 30.6 17.2 30.6 17.4 30.8Z" fill="white"/>
<path d="M37.4 17.0001L29.4 21.6001C28.8 22.0001 28.6 22.6001 29 23.2001C29.2 23.4001 29.2 23.6001 29.4 23.6001L37.4 28.2001C37.8 28.4001 38.2 28.4001 38.6 28.2001L46.6 23.6001C47.2 23.2001 47.4 22.6001 47 22.0001C46.8 21.8001 46.8 21.6001 46.6 21.6001L38.6 17.0001C38.2 16.8001 37.8 16.8001 37.4 17.0001Z" fill="white"/>
<path d="M52.4 36.8001C52.4 37.2001 52.6 37.6001 53 37.8001L61 42.4001C61.2 42.6001 61.4 42.6001 61.6 42.6001C61.8 42.6001 62 42.6001 62.2 42.4001L62.36 42.3101C62.45 42.4601 62.57 42.6001 62.73 42.6801L67.94 45.4401L38.2 62.8401L8.24 45.2401L13.56 42.3801L13.6 42.4101C13.8 42.6101 14 42.6101 14.2 42.6101C14.4 42.6101 14.6 42.6101 14.8 42.4101L22.8 37.8101C23.4 37.4101 23.6 36.8101 23.2 36.2101C23 36.0101 23 35.8101 22.8 35.8101L14.8 31.2101C14.4 31.0101 14 31.0101 13.6 31.2101L5.6 35.8101C5.2 36.0101 5 36.4101 5 36.8101C5 37.2101 5.2 37.6101 5.6 37.8101L11.52 41.2101L5.73 44.3301C5.41 44.5001 5.21 44.8301 5.2 45.1901C5.19 45.5501 5.38 45.8901 5.69 46.0701L11.69 49.5901L5.52 52.9201C5.2 53.0901 5 53.4201 5 53.7801C5 54.1401 5.18 54.4801 5.5 54.6601L37.7 73.4601C37.86 73.5501 38.03 73.6001 38.2 73.6001C38.37 73.6001 38.55 73.5501 38.71 73.4601L70.31 54.8601C70.62 54.6801 70.81 54.3501 70.8 53.9901C70.8 53.6301 70.61 53.3101 70.3 53.1301L64.48 49.7801L70.5 46.2601C70.81 46.0801 71 45.7401 71 45.3801C71 45.0201 70.79 44.6901 70.47 44.5201L64.25 41.2301L70.2 37.8101C70.8 37.4101 71 36.8101 70.6 36.2101C70.4 36.0101 70.4 35.8101 70.2 35.8101L62.2 31.2101C61.8 31.0101 61.4 31.0101 61 31.2101L53 35.8101C52.6 35.8101 52.2 36.2101 52.4 36.8101V36.8001ZM62.7 51.0701L67.81 54.0101L38.2 71.4401L8.04 53.8301L13.71 50.7701L37.7 64.8601C37.86 64.9501 38.03 65.0001 38.21 65.0001C38.39 65.0001 38.56 64.9501 38.71 64.8601L62.54 50.9201C62.59 50.9701 62.64 51.0301 62.7 51.0601V51.0701Z" fill="white"/>
</g>
<defs>
<clipPath id="clip0_203_3595">
<rect width="76.2" height="87.6" fill="white"/>
</clipPath>
</defs>
</svg>
