<svg width="242" height="280" viewBox="0 0 242 280" fill="none" xmlns="http://www.w3.org/2000/svg">
<g clip-path="url(#clip0_203_3594)">
<path d="M237.68 207.18V71.9701L119.79 4.36011L3.48999 71.9701V207.18L119.79 274.78L237.68 207.18Z" fill="black"/>
<mask id="mask0_203_3594" style="mask-type:luminance" maskUnits="userSpaceOnUse" x="0" y="0" width="242" height="280">
<path d="M241.75 0H0V279.14H241.75V0Z" fill="white"/>
</mask>
<g mask="url(#mask0_203_3594)">
<path d="M219.56 185.8L120.17 243.56L20.1 185.78L119.49 128.02L219.56 185.8Z" fill="url(#paint0_linear_203_3594)"/>
<path d="M219.56 152.62L120.17 210.38L20.1 152.6L119.49 94.8501L219.56 152.62Z" fill="url(#paint1_linear_203_3594)"/>
<path d="M148.52 78.3199L119.88 94.9599L91.06 78.3199L119.7 61.6799L148.52 78.3199Z" fill="url(#paint2_linear_203_3594)"/>
<path d="M77.72 119.46L49.08 136.1L20.26 119.46L48.89 102.81L77.71 119.46H77.72Z" fill="url(#paint3_linear_203_3594)"/>
<path d="M148.88 160.55L120.25 177.19L91.43 160.55L120.07 143.91L148.89 160.55H148.88Z" fill="url(#paint4_linear_203_3594)"/>
<path d="M113.12 98.89L84.49 115.53L55.67 98.89L84.31 82.25L113.13 98.89H113.12Z" fill="url(#paint5_linear_203_3594)"/>
<path d="M148.7 119.43L120.06 136.07L91.25 119.43L119.88 102.79L148.7 119.43Z" fill="url(#paint6_linear_203_3594)"/>
<path d="M184.29 139.98L155.66 156.62L126.84 139.98L155.48 123.34L184.3 139.98H184.29Z" fill="url(#paint7_linear_203_3594)"/>
<path d="M219.68 119.41L191.05 136.05L162.22 119.41L190.86 102.77L219.68 119.41Z" fill="url(#paint8_linear_203_3594)"/>
<path d="M184.09 98.86L155.45 115.5L126.64 98.86L155.27 82.22L184.09 98.86Z" fill="url(#paint9_linear_203_3594)"/>
<path d="M113.3 140L84.66 156.64L55.85 140L84.49 123.36L113.3 139.99V140Z" fill="url(#paint10_linear_203_3594)"/>
<mask id="mask1_203_3594" style="mask-type:luminance" maskUnits="userSpaceOnUse" x="0" y="0" width="242" height="280">
<path d="M241.75 0H0V279.14H241.75V0Z" fill="white"/>
</mask>
<g mask="url(#mask1_203_3594)">
<path d="M120.07 279.15L0 209.35V69.8L120.07 0L241.74 69.78V209.36L120.07 279.15ZM7.55 205L120.09 270.41L234.18 204.98V74.16L120.09 8.72L7.55 74.13V205Z" fill="white"/>
</g>
</g>
</g>
<defs>
<linearGradient id="paint0_linear_203_3594" x1="119.83" y1="159.68" x2="119.83" y2="266.71" gradientUnits="userSpaceOnUse">
<stop/>
<stop offset="0.51" stop-color="#32343B"/>
<stop offset="1" stop-color="#B3B6C3"/>
</linearGradient>
<linearGradient id="paint1_linear_203_3594" x1="119.83" y1="112.68" x2="119.83" y2="236.11" gradientUnits="userSpaceOnUse">
<stop/>
<stop offset="0.51" stop-color="#32343B"/>
<stop offset="1" stop-color="#B3B6C3"/>
</linearGradient>
<linearGradient id="paint2_linear_203_3594" x1="71.52" y1="115.86" x2="145.31" y2="58.4699" gradientUnits="userSpaceOnUse">
<stop stop-color="#1DA7FD"/>
<stop offset="1" stop-color="#08F5DA"/>
</linearGradient>
<linearGradient id="paint3_linear_203_3594" x1="64.78" y1="107.19" x2="138.56" y2="49.8001" gradientUnits="userSpaceOnUse">
<stop stop-color="#1DA7FD"/>
<stop offset="1" stop-color="#08F5DA"/>
</linearGradient>
<linearGradient id="paint4_linear_203_3594" x1="111.51" y1="167.28" x2="185.3" y2="109.89" gradientUnits="userSpaceOnUse">
<stop stop-color="#1DA7FD"/>
<stop offset="1" stop-color="#08F5DA"/>
</linearGradient>
<linearGradient id="paint5_linear_203_3594" x1="68.15" y1="111.52" x2="141.94" y2="54.13" gradientUnits="userSpaceOnUse">
<stop stop-color="#1DA7FD"/>
<stop offset="1" stop-color="#08F5DA"/>
</linearGradient>
<linearGradient id="paint6_linear_203_3594" x1="91.51" y1="141.56" x2="165.3" y2="84.17" gradientUnits="userSpaceOnUse">
<stop stop-color="#1DA7FD"/>
<stop offset="1" stop-color="#08F5DA"/>
</linearGradient>
<linearGradient id="paint7_linear_203_3594" x1="114.88" y1="171.61" x2="188.67" y2="114.22" gradientUnits="userSpaceOnUse">
<stop stop-color="#1DA7FD"/>
<stop offset="1" stop-color="#08F5DA"/>
</linearGradient>
<linearGradient id="paint8_linear_203_3594" x1="118.26" y1="175.95" x2="192.05" y2="118.56" gradientUnits="userSpaceOnUse">
<stop stop-color="#1DA7FD"/>
<stop offset="1" stop-color="#08F5DA"/>
</linearGradient>
<linearGradient id="paint9_linear_203_3594" x1="94.89" y1="145.9" x2="168.68" y2="88.51" gradientUnits="userSpaceOnUse">
<stop stop-color="#1DA7FD"/>
<stop offset="1" stop-color="#08F5DA"/>
</linearGradient>
<linearGradient id="paint10_linear_203_3594" x1="88.14" y1="137.23" x2="161.93" y2="79.8401" gradientUnits="userSpaceOnUse">
<stop stop-color="#1DA7FD"/>
<stop offset="1" stop-color="#08F5DA"/>
</linearGradient>
<clipPath id="clip0_203_3594">
<rect width="241.75" height="279.15" fill="white"/>
</clipPath>
</defs>
</svg>
